<svg width="1205" height="303" viewBox="0 0 1205 303" fill="none" xmlns="http://www.w3.org/2000/svg">
<g filter="url(#filter0_d_95_506)">
<path d="M95 22.736V96.08H87.704V103.888H80.664V110.672H74.136V116.944H25.496V110.672H18.968V103.888H11.928V96.08H4.632V22.736H11.928V14.928H18.968V8.016H25.496V1.87199H74.136V8.016H80.664V14.928H87.704V22.736H95ZM34.2 35.28V83.536H40.856V90.448H58.776V83.536H65.432V35.28H58.776V28.24H40.856V35.28H34.2ZM131.092 31.184H136.212V25.296H152.852V31.568H158.74V25.296H195.476V31.184H201.364V37.456H206.996V44.496H212.116V111.952H206.996V117.072H188.564V111.952H183.444V56.272H178.324V50.768H164.884V56.272H159.636V111.824H154.516V116.944H136.212V111.824H131.092V31.184ZM299.916 59.728V53.584H294.54V49.232H281.1V53.584H275.724V59.728H299.916ZM327.308 42.32V77.264H322.188V82.384H275.724V87.376H281.868V92.624H319.244V98H324.62V111.952H319.244V116.944H266.508V111.696H259.852V106.064H253.58V99.92H247.692V42.32H253.58V36.176H259.852V30.672H266.508V25.296H308.492V30.672H315.148V36.176H321.42V42.32H327.308ZM470.091 50.512H452.555V78.16H470.091V72.912H474.955V55.76H470.091V50.512ZM429.515 30.416V25.296H487.243V31.184H493.131V37.456H498.763V44.496H503.883V84.304H498.763V91.216H493.131V97.488H487.243V103.376H453.323V132.176H447.947V137.296H429.899V132.176H424.395V30.416H429.515ZM544.627 116.944V111.824H539.507V5.45599H544.627V0.335999H564.211V5.45599H569.331V111.824H564.211V116.944H544.627ZM657.688 79.696H637.464V84.048H632.856V90.32H637.464V94.672H657.688V79.696ZM685.336 37.456V111.312H680.344V116.944H620.696V111.952H614.936V106.448H609.432V100.304H604.44V74.576H609.432V68.432H614.936V62.928H620.696V57.936H657.688V49.872H615.96V44.24H610.712V30.8H615.96V25.296H673.816V30.928H679.448V37.456H685.336ZM739.758 111.696H733.102V106.064H726.83V99.92H720.942V42.32H726.83V36.176H733.102V30.672H739.758V25.296H790.958V30.8H796.334V46.288H790.958V51.28H756.398V56.528H750.126V85.712H756.398V90.96H790.702V96.208H796.334V111.952H790.702V116.944H739.758V111.696ZM881.766 59.728V53.584H876.39V49.232H862.95V53.584H857.574V59.728H881.766ZM909.158 42.32V77.264H904.038V82.384H857.574V87.376H863.718V92.624H901.094V98H906.47V111.952H901.094V116.944H848.358V111.696H841.702V106.064H835.43V99.92H829.542V42.32H835.43V36.176H841.702V30.672H848.358V25.296H890.342V30.672H896.998V36.176H903.27V42.32H909.158ZM969.599 93.648H974.719V111.824H969.599V116.944H951.935V111.824H946.815V93.648H951.935V88.528H969.599V93.648ZM202.468 200.032V206.688H209.124V220.128H202.468V226.784H157.156V244.192H202.468V250.336H209.124V264.672H202.468V270.944H133.988V264.288H127.332V162.528H133.988V155.872H202.468V162.016H209.124V176.224H202.468V182.496H157.156V200.032H202.468ZM270.035 264.544H264.659V258.144H259.155V251.744H253.907V245.472H248.787V238.688H243.667V184.288H249.043V179.168H267.603V184.288H272.723V227.552H277.459V234.592H282.323V241.248H288.467V234.592H293.459V227.552H298.195V184.288H303.571V179.168H322.003V184.288H327.379V238.688H322.131V245.472H317.011V251.744H311.763V258.144H306.387V264.544H300.883V270.944H270.035V264.544ZM415.116 213.728V207.584H409.74V203.232H396.3V207.584H390.924V213.728H415.116ZM442.508 196.32V231.264H437.388V236.384H390.924V241.376H397.068V246.624H434.444V252H439.82V265.952H434.444V270.944H381.708V265.696H375.052V260.064H368.78V253.92H362.892V196.32H368.78V190.176H375.052V184.672H381.708V179.296H423.692V184.672H430.348V190.176H436.62V196.32H442.508ZM515.877 223.584H508.837V265.824H503.717V270.944H483.493V265.824H478.373V184.032H483.493V179.296H503.333V184.032H508.453V191.712H513.061V184.032H518.053V179.296H538.149V184.288H543.141V201.44H537.765V206.688H530.341V212.192H523.045V217.696H515.877V223.584ZM626.923 227.168V184.416H632.043V179.296H649.451V184.416H654.571V276.832H649.451V283.104H643.691V289.12H637.803V294.112H585.835V289.12H580.331V274.784H585.835V269.536H620.139V264.288H626.283V256.608H594.411V251.616H587.755V246.368H581.483V240.608H575.595V184.16H580.843V179.296H598.635V184.16H603.755V227.168H608.363V232.672H622.315V227.168H626.923ZM791.475 236.128H768.307V231.904H762.419V227.04H756.787V221.664H751.283V194.272H756.787V188.64H762.419V183.648H768.307V179.296H820.275V184.032H825.395V198.496H820.275V203.488H785.971V206.816H781.619V210.784H785.971V213.984H809.139V218.208H815.155V223.072H820.659V228.448H826.163V255.968H820.659V261.6H815.155V266.592H809.139V270.944H757.299V266.208H752.179V251.616H757.299V246.624H791.475V243.296H795.827V239.328H791.475V236.128ZM910.032 241.376V245.984H919.248V251.488H924.624V265.696H919.248V270.944H888.016V265.952H881.488V260.704H875.472V205.92H863.056V200.8H857.936V184.288H863.056V179.168H875.472V159.456H880.464V154.336H900.56V159.456H905.424V179.168H919.76V184.288H924.88V200.8H919.76V205.92H905.424V241.376H910.032ZM1009.96 233.696H989.739V238.048H985.131V244.32H989.739V248.672H1009.96V233.696ZM1037.61 191.456V265.312H1032.62V270.944H972.971V265.952H967.211V260.448H961.707V254.304H956.715V228.576H961.707V222.432H967.211V216.928H972.971V211.936H1009.96V203.872H968.235V198.24H962.987V184.8H968.235V179.296H1026.09V184.928H1031.72V191.456H1037.61ZM1110.98 223.584H1103.94V265.824H1098.82V270.944H1078.59V265.824H1073.47V184.032H1078.59V179.296H1098.43V184.032H1103.55V191.712H1108.16V184.032H1113.15V179.296H1133.25V184.288H1138.24V201.44H1132.86V206.688H1125.44V212.192H1118.14V217.696H1110.98V223.584ZM1195.4 247.648H1200.52V265.824H1195.4V270.944H1177.73V265.824H1172.61V247.648H1177.73V242.528H1195.4V247.648Z" fill="white"/>
</g>
<defs>
<filter id="filter0_d_95_506" x="0.631836" y="0.335938" width="1203.89" height="301.776" filterUnits="userSpaceOnUse" color-interpolation-filters="sRGB">
<feFlood flood-opacity="0" result="BackgroundImageFix"/>
<feColorMatrix in="SourceAlpha" type="matrix" values="0 0 0 0 0 0 0 0 0 0 0 0 0 0 0 0 0 0 127 0" result="hardAlpha"/>
<feOffset dy="4"/>
<feGaussianBlur stdDeviation="2"/>
<feComposite in2="hardAlpha" operator="out"/>
<feColorMatrix type="matrix" values="0 0 0 0 0 0 0 0 0 0 0 0 0 0 0 0 0 0 0.5 0"/>
<feBlend mode="normal" in2="BackgroundImageFix" result="effect1_dropShadow_95_506"/>
<feBlend mode="normal" in="SourceGraphic" in2="effect1_dropShadow_95_506" result="shape"/>
</filter>
</defs>
</svg>
