<svg width="82" height="19" viewBox="0 0 82 19" fill="none" xmlns="http://www.w3.org/2000/svg">
<path d="M10.6229 6.05615C10.4791 4.57048 9.2091 3.70783 7.34003 3.70783C5.3751 3.70783 4.17698 4.66633 4.17698 5.9603C4.17698 7.42202 5.71058 8.02108 7.14833 8.35656L8.77778 8.78788C11.3657 9.38694 13.8578 10.7528 13.8578 13.7721C13.8578 16.8153 11.4616 18.9001 7.2921 18.9001C3.24244 18.9001 0.70241 16.9591 0.558635 13.5325H3.62584C3.76961 15.3536 5.30321 16.2402 7.26814 16.2402C9.32892 16.2402 10.7427 15.2338 10.7427 13.7481C10.7427 12.3823 9.47269 11.8072 7.60361 11.3279L5.63869 10.8247C2.78715 10.0819 1.01392 8.64411 1.01392 6.152C1.01392 3.0848 3.74565 1.04799 7.38795 1.04799C11.0782 1.04799 13.5703 3.13273 13.6182 6.05615H10.6229ZM23.0412 5.62483V7.97315H20.4772V14.7306C20.4772 15.9766 21.1003 16.2402 21.8671 16.2402C22.2265 16.2402 22.8256 16.2163 23.209 16.1923V18.6844C22.8495 18.7563 22.2505 18.8042 21.4837 18.8042C19.1833 18.8042 17.41 17.678 17.434 15.2338V7.97315H15.5649V5.62483H17.434V2.5097H20.4772V5.62483H23.0412ZM25.0359 14.9702C25.0359 12.0468 27.4561 11.1841 29.8763 11.0404C30.7749 10.9805 32.644 10.8726 33.2071 10.8487V9.81827C33.2071 8.52429 32.3684 7.78145 30.8588 7.78145C29.4929 7.78145 28.6542 8.40448 28.4146 9.33902H25.4672C25.6829 7.13447 27.6717 5.45709 30.9306 5.45709C33.3988 5.45709 36.2503 6.46352 36.2503 9.93808V18.6365H33.3269V16.8393H33.231C32.6559 17.9416 31.4339 18.9001 29.397 18.9001C26.9049 18.9001 25.0359 17.5342 25.0359 14.9702ZM27.9833 14.9462C27.9833 16.0725 28.8938 16.6476 30.1878 16.6476C32.0329 16.6476 33.231 15.4255 33.231 13.9638V12.8855L30.3555 13.0772C28.8938 13.197 27.9833 13.796 27.9833 14.9462ZM39.3712 18.6365V5.62483H42.3426V7.78145H42.4863C42.9416 6.29578 44.2116 5.43313 45.6973 5.43313C46.0328 5.43313 46.512 5.45709 46.7996 5.50502V8.33259C46.536 8.23674 45.889 8.14089 45.3858 8.14089C43.6845 8.14089 42.4384 9.31506 42.4384 10.9685V18.6365H39.3712ZM51.9333 1.28761V18.6365H48.8661V1.28761H51.9333ZM55.1021 18.6365V5.62483H58.1693V18.6365H55.1021ZM56.6597 3.77971C55.7012 3.77971 54.8865 3.03688 54.8865 2.10234C54.8865 1.19176 55.7012 0.448925 56.6597 0.448925C57.6421 0.448925 58.4329 1.19176 58.4329 2.10234C58.4329 3.03688 57.6421 3.77971 56.6597 3.77971ZM68.7186 9.33902C68.5269 8.35656 67.7122 7.73353 66.4182 7.73353C65.1002 7.73353 64.1417 8.38052 64.1657 9.26713C64.1417 9.93808 64.6929 10.4413 66.0108 10.7528L68.2154 11.2081C70.6835 11.7592 71.8577 12.8855 71.8816 14.7545C71.8577 17.1987 69.725 18.9001 66.3223 18.9001C63.0155 18.9001 61.0506 17.4144 60.7391 14.9223H63.8542C64.0459 16.0246 64.9085 16.5757 66.3223 16.5757C67.784 16.5757 68.7665 15.9766 68.7665 15.0181C68.7665 14.2753 68.1674 13.796 66.8735 13.5085L64.7887 13.0532C62.3685 12.574 61.1225 11.3039 61.1225 9.43487C61.1225 7.03862 63.1832 5.45709 66.3702 5.45709C69.4854 5.45709 71.4024 6.96673 71.618 9.33902H68.7186ZM80.9452 5.62483V7.97315H78.3812V14.7306C78.3812 15.9766 79.0042 16.2402 79.771 16.2402C80.1305 16.2402 80.7295 16.2163 81.1129 16.1923V18.6844C80.7535 18.7563 80.1544 18.8042 79.3876 18.8042C77.0872 18.8042 75.314 17.678 75.338 15.2338V7.97315H73.4689V5.62483H75.338V2.5097H78.3812V5.62483H80.9452Z" fill="black"/>
</svg>
