<svg xmlns="http://www.w3.org/2000/svg" width="4216" height="3756" fill="none"><g filter="url(#a)"><path fill="#C8B8FF" d="M2088.67 1141.16c282.57-72.1 434.46-244.3 721.47-192.649 664.46 119.579 578.49 1380.339 0 1728.319-348.07 209.38-667.81 162.27-1040.2 0-363.31-158.31-504.09-296.68-705.03-638.19-73.062-124.17-158.601-357.18-113.245-524.06 51.725-190.34 199.315-278.71 392.705-317.73 199.09-40.17 393.61 33.78 744.3-55.69Z"/></g><g filter="url(#b)"><path fill="#7349D6" d="M2258.8 1381.38c242.08-61.78 372.21-209.35 618.1-165.08 569.24 102.46 495.6 1182.88 0 1481.07-298.2 179.43-572.13 139.06-891.16 0-311.25-135.66-431.86-254.23-604.01-546.89-62.59-106.41-135.87-306.09-97.01-449.1 44.31-163.11 170.75-238.83 336.43-272.27 170.56-34.43 337.21 28.95 637.65-47.73Z"/></g><g filter="url(#c)"><ellipse cx="2589.44" cy="2189.72" fill="#87EDFF" rx="870.809" ry="593.057" transform="rotate(21.91 2589.44 2189.72)"/></g><defs><filter id="a" width="4215.56" height="3755.51" x=".1229" y=".1229" color-interpolation-filters="sRGB" filterUnits="userSpaceOnUse"><feFlood flood-opacity="0" result="BackgroundImageFix"/><feBlend in="SourceGraphic" in2="BackgroundImageFix" result="shape"/><feGaussianBlur result="effect1_foregroundBlur_1885_605" stdDeviation="469.439"/></filter><filter id="b" width="3254.66" height="2860.97" x="647.948" y="582.226" color-interpolation-filters="sRGB" filterUnits="userSpaceOnUse"><feFlood flood-opacity="0" result="BackgroundImageFix"/><feBlend in="SourceGraphic" in2="BackgroundImageFix" result="shape"/><feGaussianBlur result="effect1_foregroundBlur_1885_605" stdDeviation="312.959"/></filter><filter id="c" width="2927.6" height="2530.06" x="1125.64" y="924.691" color-interpolation-filters="sRGB" filterUnits="userSpaceOnUse"><feFlood flood-opacity="0" result="BackgroundImageFix"/><feBlend in="SourceGraphic" in2="BackgroundImageFix" result="shape"/><feGaussianBlur result="effect1_foregroundBlur_1885_605" stdDeviation="312.959"/></filter></defs></svg>