<svg width="400" height="280" viewBox="0 0 400 280" fill="none" stroke="currentColor" xmlns="http://www.w3.org/2000/svg">
<g filter="url(#filter0_d_1600_367)">
<path d="M15 38C15 23.0883 27.0883 11 42 11H172.052C180.716 11 188.854 15.158 193.931 22.179L216.179 52.946C221.256 59.967 229.394 64.125 238.058 64.125H358C372.912 64.125 385 76.2133 385 91.125V234C385 248.912 372.912 261 358 261H42C27.0883 261 15 248.912 15 234V38Z" fill="#F5F2FF"/>
<path d="M42 11.5H172.052C180.555 11.5001 188.542 15.5809 193.525 22.4717L215.773 53.2393C220.944 60.3901 229.233 64.625 238.058 64.625H358C372.636 64.625 384.5 76.4895 384.5 91.125V234C384.5 248.636 372.636 260.5 358 260.5H42C27.3645 260.5 15.5 248.636 15.5 234V38C15.5 23.3645 27.3645 11.5 42 11.5Z" stroke="currentColor"/>
</g>
<defs>
<filter id="filter0_d_1600_367" x="0.1" y="0.1" width="399.8" height="279.8" filterUnits="userSpaceOnUse" color-interpolation-filters="sRGB">
<feFlood flood-opacity="0" result="BackgroundImageFix"/>
<feColorMatrix in="SourceAlpha" type="matrix" values="0 0 0 0 0 0 0 0 0 0 0 0 0 0 0 0 0 0 127 0" result="hardAlpha"/>
<feOffset dy="4"/>
<feGaussianBlur stdDeviation="7.45"/>
<feComposite in2="hardAlpha" operator="out"/>
<feColorMatrix type="matrix" values="0 0 0 0 0 0 0 0 0 0 0 0 0 0 0 0 0 0 0.25 0"/>
<feBlend mode="normal" in2="BackgroundImageFix" result="effect1_dropShadow_1600_367"/>
<feBlend mode="normal" in="SourceGraphic" in2="effect1_dropShadow_1600_367" result="shape"/>
</filter>
</defs>
</svg>
