<svg xmlns="http://www.w3.org/2000/svg" width="400" height="280" fill="none" stroke="currentColor"><g filter="url(#a)"><path fill="#F5F2FF" d="M15 38c0-14.9117 12.0883-27 27-27h130.052c8.664 0 16.802 4.158 21.879 11.179l22.248 30.767c5.077 7.021 13.215 11.179 21.879 11.179H358c14.912 0 27 12.0883 27 27V234c0 14.912-12.088 27-27 27H42c-14.9117 0-27-12.088-27-27V38Z"/><path d="M42 11.5h130.052c8.503.0001 16.49 4.0809 21.473 10.9717l22.248 30.7676c5.171 7.1508 13.46 11.3857 22.285 11.3857H358c14.636 0 26.5 11.8645 26.5 26.5V234c0 14.636-11.864 26.5-26.5 26.5H42c-14.6355 0-26.5-11.864-26.5-26.5V38c0-14.6355 11.8645-26.5 26.5-26.5Z"/></g><defs><filter id="a" width="399.8" height="279.8" x=".1" y=".1" color-interpolation-filters="sRGB" filterUnits="userSpaceOnUse"><feFlood flood-opacity="0" result="BackgroundImageFix"/><feColorMatrix in="SourceAlpha" result="hardAlpha" values="0 0 0 0 0 0 0 0 0 0 0 0 0 0 0 0 0 0 127 0"/><feOffset dy="4"/><feGaussianBlur stdDeviation="7.45"/><feComposite in2="hardAlpha" operator="out"/><feColorMatrix values="0 0 0 0 0 0 0 0 0 0 0 0 0 0 0 0 0 0 0.25 0"/><feBlend in2="BackgroundImageFix" result="effect1_dropShadow_1600_367"/><feBlend in="SourceGraphic" in2="effect1_dropShadow_1600_367" result="shape"/></filter></defs></svg>