<svg width="27" height="27" viewBox="0 0 27 27" fill="none" xmlns="http://www.w3.org/2000/svg">
<path d="M3.375 6.75H5.625M5.625 6.75H23.625M5.625 6.75V22.5C5.625 23.0967 5.86205 23.669 6.28401 24.091C6.70597 24.5129 7.27826 24.75 7.875 24.75H19.125C19.7217 24.75 20.294 24.5129 20.716 24.091C21.1379 23.669 21.375 23.0967 21.375 22.5V6.75M9 6.75V4.5C9 3.90326 9.23705 3.33097 9.65901 2.90901C10.081 2.48705 10.6533 2.25 11.25 2.25H15.75C16.3467 2.25 16.919 2.48705 17.341 2.90901C17.7629 3.33097 18 3.90326 18 4.5V6.75M11.25 12.375V19.125M15.75 12.375V19.125" stroke="#1E1E1E" stroke-width="2" stroke-linecap="round" stroke-linejoin="round"/>
</svg>
