<svg xmlns="http://www.w3.org/2000/svg" width="25" height="25" fill="none"><path stroke="#4D4A57" stroke-linecap="round" stroke-linejoin="round" stroke-width="2" d="M20.3947 10.9213V7.7107c0-.5522-.4477-1-1-1h-7.0068a1 1 0 0 1-.7071-.2929l-1.5195-1.5194a1 1 0 0 0-.707-.293H3.5c-.5523 0-1 .4478-1 1V19.395c0 .5523.4477 1 1 1h1.2668a.891.891 0 0 0 .891-.891v0a.8912.8912 0 0 1 .0568-.3129l2.8579-7.6209a1 1 0 0 1 .9363-.6488h11.6038c.6825 0 1.1645.6687.9487 1.3162L19.57 19.7112a1 1 0 0 1-.9487.6837H4.6053"/></svg>