<svg width="58" height="58" viewBox="0 0 58 58" fill="none" xmlns="http://www.w3.org/2000/svg">
<path d="M53.7298 29.9855C53.7298 27.9296 53.5595 26.4294 53.1911 24.8737H29.2363V34.1527H43.2973C43.0139 36.4587 41.483 39.9314 38.0811 42.265L38.0334 42.5756L45.6075 48.3258L46.1322 48.3772C50.9515 44.0153 53.7298 37.5977 53.7298 29.9855" fill="#4285F4"/>
<path d="M29.2349 54.4339C36.1235 54.4339 41.9066 52.2112 46.1307 48.3774L38.0796 42.2651C35.9252 43.7376 33.0335 44.7655 29.2349 44.7655C22.4879 44.7655 16.7615 40.4039 14.7202 34.3751L14.421 34.4L6.54538 40.3732L6.44238 40.6538C10.638 48.8217 19.256 54.4339 29.2349 54.4339Z" fill="#34A853"/>
<path d="M14.7219 34.3753C14.1833 32.8195 13.8716 31.1525 13.8716 29.4301C13.8716 27.7075 14.1833 26.0407 14.6936 24.4849L14.6793 24.1536L6.70499 18.0845L6.44408 18.2061C4.71488 21.5955 3.72266 25.4017 3.72266 29.4301C3.72266 33.4585 4.71488 37.2645 6.44408 40.6539L14.7219 34.3753" fill="#FBBC05"/>
<path d="M29.235 14.0946C34.0259 14.0946 37.2576 16.1226 39.1004 17.8174L46.301 10.9275C41.8787 6.89911 36.1237 4.42651 29.235 4.42651C19.2561 4.42651 10.638 10.0384 6.44238 18.2062L14.6919 24.485C16.7616 18.4564 22.488 14.0946 29.235 14.0946" fill="#EB4335"/>
</svg>
