<svg width="32" height="32" viewBox="0 0 32 32" fill="none" xmlns="http://www.w3.org/2000/svg">
<path d="M19.5294 10.3998V7.5998C19.5294 6.8572 19.2319 6.14501 18.7024 5.61991C18.1729 5.0948 17.4547 4.7998 16.7059 4.7998H6.82353C6.07468 4.7998 5.35651 5.0948 4.82699 5.61991C4.29748 6.14501 4 6.8572 4 7.5998V24.3998C4 25.1424 4.29748 25.8546 4.82699 26.3797C5.35651 26.9048 6.07468 27.1998 6.82353 27.1998H16.7059C17.4547 27.1998 18.1729 26.9048 18.7024 26.3797C19.2319 25.8546 19.5294 25.1424 19.5294 24.3998V21.5998M11.0588 15.9998H28M28 15.9998L23.7647 11.7998M28 15.9998L23.7647 20.1998" stroke="black" stroke-width="2.16667" stroke-linecap="round" stroke-linejoin="round"/>
</svg>
