<svg width="27" height="27" viewBox="0 0 27 27" fill="none" xmlns="http://www.w3.org/2000/svg">
<path d="M22.0255 11.7947V8.24732C22.0255 7.69503 21.5778 7.24732 21.0255 7.24732H13.345C13.0798 7.24732 12.8254 7.14196 12.6379 6.95442L10.95 5.26653C10.7625 5.07899 10.5081 4.97363 10.2429 4.97363H3.69922C3.14693 4.97363 2.69922 5.42135 2.69922 5.97363V21.0263C2.69922 21.5786 3.14693 22.0263 3.69922 22.0263H5.14741C5.67889 22.0263 6.10974 21.5954 6.10974 21.0639V21.0639C6.10974 20.9485 6.1305 20.8341 6.17102 20.726L9.27694 12.4436C9.42331 12.0533 9.79643 11.7947 10.2133 11.7947H22.9118C23.5944 11.7947 24.0763 12.4634 23.8605 13.1109L21.1166 21.3425C20.9805 21.7508 20.5984 22.0263 20.1679 22.0263H4.9729" stroke="black" stroke-width="2" stroke-linecap="round" stroke-linejoin="round"/>
</svg>
