<svg xmlns="http://www.w3.org/2000/svg" width="31" height="31" fill="none"><path fill="#DDD9E7" d="M31 15.5C31 24.0604 24.0604 31 15.5 31S0 24.0604 0 15.5 6.9396 0 15.5 0 31 6.9396 31 15.5Z"/><path fill="#BCB6CD" d="M5.8915 27.6634c.921-4.7673 2.6028-7.7569 6.2514-10.6402-1.2398-.9877-2.0344-2.5105-2.0344-4.2189 0-2.9775 2.4138-5.3913 5.3914-5.3913 2.9775 0 5.3913 2.4138 5.3913 5.3913 0 1.6826-.7708 3.1851-1.9785 4.1738 3.6682 2.8814 5.3644 5.8605 6.2935 10.6072C22.5497 29.7216 19.1742 31 15.5 31c-3.6292 0-6.9672-1.2473-9.6085-3.3366Z"/></svg>