<svg width="31" height="31" viewBox="0 0 31 31" fill="none" xmlns="http://www.w3.org/2000/svg">
<g id="Vector">
<path d="M31 15.5C31 24.0604 24.0604 31 15.5 31C6.93959 31 0 24.0604 0 15.5C0 6.93959 6.93959 0 15.5 0C24.0604 0 31 6.93959 31 15.5Z" fill="#DDD9E7"/>
<path d="M5.89147 27.6634C6.81243 22.8961 8.49428 19.9065 12.1429 17.0232C10.9031 16.0355 10.1085 14.5127 10.1085 12.8043C10.1085 9.82681 12.5223 7.41304 15.4999 7.41304C18.4774 7.41304 20.8912 9.82681 20.8912 12.8043C20.8912 14.4869 20.1204 15.9894 18.9127 16.9781C22.5809 19.8595 24.2771 22.8386 25.2062 27.5853C22.5497 29.7216 19.1742 31 15.5 31C11.8708 31 8.53276 29.7527 5.89147 27.6634Z" fill="#BCB6CD"/>
</g>
</svg>
