<svg xmlns="http://www.w3.org/2000/svg" width="31" height="31" fill="none"><path fill="#1D1B20" d="m11.9487 28.4166-.5167-4.1333a4.9186 4.9186 0 0 1-.7911-.3875 10.644 10.644 0 0 1-.7266-.4844L6.0716 25.026l-3.552-6.1355 3.326-2.5187a3.0845 3.0845 0 0 1-.0323-.4359v-.8719c0-.1399.0107-.2853.0323-.436l-3.326-2.5187 3.552-6.1354 3.8427 1.6146a8.805 8.805 0 0 1 .7427-.4844 6.5107 6.5107 0 0 1 .775-.3875l.5167-4.1334h7.1042l.5166 4.1334c.2799.1076.5436.2368.7912.3875.2475.1507.4897.3121.7265.4844L24.93 5.9739l3.552 6.1354-3.326 2.5187c.0215.1507.0323.2961.0323.436v.8719c0 .1399-.0215.2852-.0646.4359l3.326 2.5187-3.552 6.1355-3.8105-1.6146a8.7976 8.7976 0 0 1-.7427.4844 6.52 6.52 0 0 1-.775.3875l-.5166 4.1333h-7.1042Zm3.6167-8.3958c1.2486 0 2.3142-.4414 3.1968-1.324.8827-.8826 1.324-1.9483 1.324-3.1969s-.4413-2.3142-1.324-3.1969c-.8826-.8826-1.9482-1.3239-3.1968-1.3239-1.2702 0-2.3412.4413-3.2131 1.3239-.8718.8827-1.3078 1.9483-1.3078 3.1969s.436 2.3143 1.3078 3.1969c.8719.8826 1.9429 1.324 3.2131 1.324Z"/></svg>