<svg xmlns="http://www.w3.org/2000/svg" width="34" height="34" fill="none"><path fill="#7349D6" d="M34 17c0 9.3888-7.6112 17-17 17S0 26.3888 0 17 7.6112 0 17 0s17 7.6112 17 17Z"/><path fill="#fff" d="M7.1717 17.0614c-.647-.6471-.647-1.6964 0-2.3435.6472-.6471 1.6964-.6471 2.3435 0l8.2022 8.2022c.6472.6471.6472 1.6963 0 2.3435-.6471.6471-1.6963.6471-2.3435 0l-8.2022-8.2022Z"/><path fill="#fff" d="M25.9196 12.3744c.6471-.6471 1.6964-.6471 2.3435 0 .6471.6472.6471 1.6964 0 2.3435L17.7174 25.2636c-.6471.6471-1.6963.6471-2.3435 0-.6471-.6472-.6471-1.6964 0-2.3435l10.5457-10.5457Z"/></svg>