<svg width="20" height="20" viewBox="0 0 20 20" fill="none" xmlns="http://www.w3.org/2000/svg">
<path d="M9.88159 0C10.5067 0 11.0141 0.506586 11.0144 1.13159V8.30078H18.8684C19.4933 8.30104 19.9997 8.80753 20 9.43237C20 10.0574 19.4934 10.5649 18.8684 10.5652H11.0144V18.8684C11.0141 19.4934 10.5067 20 9.88159 20C9.25675 19.9997 8.75026 19.4933 8.75 18.8684V10.5652H1.13159C0.506586 10.5649 0 10.0574 0 9.43237C0.000261258 8.80753 0.506747 8.30104 1.13159 8.30078H8.75V1.13159C8.75026 0.506747 9.25675 0.000261259 9.88159 0Z" fill="white"/>
</svg>
