<svg xmlns="http://www.w3.org/2000/svg" width="28" height="27" fill="none"><path fill="#1A1A1A" d="m22.8667 23.625-7.35-7.0875c-.5834.45-1.2542.8063-2.0125 1.0688-.7584.2625-1.5653.3937-2.4209.3937-2.1194 0-3.9132-.7078-5.3812-2.1234C4.234 14.4609 3.5 12.7312 3.5 10.6875s.734-3.7734 2.202-5.189C7.1702 4.0827 8.964 3.375 11.0834 3.375c2.1195 0 3.9132.7078 5.3813 2.1234 1.468 1.4157 2.2021 3.1454 2.2021 5.1891 0 .825-.1361 1.6031-.4084 2.3344-.2722.7312-.6416 1.3781-1.1083 1.9406L24.5 22.05l-1.6333 1.575ZM11.0833 15.75c1.4584 0 2.6979-.4922 3.7188-1.4766 1.0208-.9843 1.5312-2.1796 1.5312-3.5859 0-1.4063-.5104-2.6016-1.5312-3.586-1.0209-.9843-2.2604-1.4765-3.7188-1.4765-1.4583 0-2.6979.4922-3.7187 1.4766-1.0209.9843-1.5313 2.1796-1.5313 3.5859 0 1.4063.5104 2.6016 1.5313 3.5859 1.0208.9844 2.2604 1.4766 3.7187 1.4766Z"/></svg>