<svg width="60" height="60" viewBox="0 0 60 60" fill="none" xmlns="http://www.w3.org/2000/svg">
<circle cx="30" cy="30" r="30" fill="#DDD9E7"/>
<path d="M36.5502 40.9546C36.5502 40.9546 24.0231 50.4183 18.9346 49.7538C18.7186 49.7254 17.7601 49.6255 17.318 48.0759C17.141 47.4536 16.4294 45.0073 17.9089 37.4832L20.4759 39.5188C20.4759 39.5188 19.4275 45.1808 20.1364 46.4157C20.8135 47.5957 31.9845 41.0477 33.7627 39.3297L36.5493 40.9546H36.5502ZM37.6113 31.8193C38.5136 34.1675 40.5622 46.2422 39.3559 46.5529C37.8737 46.9341 33.9506 44.236 33.9506 44.236L31.2293 46.1207C31.5507 46.3343 31.8738 46.546 32.1997 46.7548C32.4956 46.9439 32.7933 47.1311 33.0937 47.3144C33.366 47.481 33.6393 47.6447 33.9143 47.8054C34.163 47.9505 34.4135 48.0926 34.6659 48.2318C34.8928 48.3572 35.1206 48.4788 35.3503 48.5983C35.5563 48.7052 35.7633 48.809 35.972 48.909C36.1581 48.9982 36.3451 49.0854 36.5339 49.1687C36.7009 49.2432 36.8697 49.3148 37.0395 49.3824C37.1893 49.4422 37.3399 49.5 37.4915 49.5549C37.6249 49.6029 37.7584 49.648 37.8936 49.6901C38.0116 49.7274 38.1296 49.7617 38.2485 49.793C38.352 49.8205 38.4555 49.845 38.5608 49.8675C38.6506 49.8871 38.7414 49.9038 38.8322 49.9195C38.9102 49.9322 38.9883 49.943 39.0673 49.9528C39.3786 49.9891 39.6945 49.9969 40.0067 49.9998C40.3181 50.0028 40.6285 49.9636 40.9208 49.8479C41.1241 49.7676 41.3138 49.6519 41.4763 49.5C41.5861 49.3971 41.6823 49.2785 41.764 49.1491C41.7913 49.106 41.8158 49.0619 41.8421 49.0188C44.3782 44.823 39.9632 29.5131 39.9632 29.5131L37.6141 31.8222L37.6113 31.8193ZM48.8976 24.4872C47.7221 23.6855 43.7855 22.8554 39.8379 22.3546C35.1351 21.7577 30.7936 21.5646 30.7936 21.5646L32.8741 24.5764C35.2922 24.451 46.14 25.2517 46.2744 26.813C46.4105 28.4017 41.6397 32.274 41.6397 32.274L42.463 35.8768C48.2186 31.0989 49.5974 27.6451 49.8434 27.0492C50.4552 25.5644 49.09 24.6176 48.8985 24.4863L48.8976 24.4872ZM21.1131 26.1397C21.0341 26.3553 20.956 26.5719 20.8789 26.7885C20.8108 26.9786 20.7445 27.1697 20.6783 27.3609C20.6229 27.5226 20.5675 27.6843 20.514 27.847C20.4713 27.9773 20.4296 28.1077 20.3896 28.238C20.3606 28.3331 20.3325 28.4292 20.307 28.5252C20.2925 28.582 20.2762 28.6408 20.2698 28.6997C20.2689 28.7114 20.2607 28.7516 20.2816 28.7496C20.2816 28.7496 20.284 28.7493 20.2889 28.7487L23.7363 28.188C24.2192 26.1652 27.5768 17.0592 29.3903 14.5796C29.7779 14.0493 30.2127 13.9474 30.5849 14.4923C31.5062 15.8409 33.6184 20.8217 33.6184 20.8217L36.7753 21.0589C34.0686 13.917 31.8311 10.9885 31.3392 10.5926C31.0042 10.3231 30.6203 10.0986 30.1991 10.0241C29.7162 9.93886 29.2478 10.0859 28.8466 10.3662C28.636 10.5132 28.4318 10.6739 28.2503 10.8582C27.9317 11.1816 27.9081 11.2287 27.7647 11.4188C27.555 11.6962 27.5686 11.6511 27.358 11.9735C27.2073 12.2048 27.0685 12.444 26.9314 12.6841C26.8089 12.8987 26.6909 13.1153 26.5747 13.3339C26.4476 13.5711 26.3241 13.8112 26.2025 14.0513C26.0718 14.3091 25.9447 14.5678 25.8186 14.8275C25.686 15.1019 25.5544 15.3774 25.4255 15.6528C25.2912 15.9409 25.1578 16.229 25.0271 16.5192C24.8918 16.8171 24.7575 17.117 24.6249 17.4169C24.4897 17.7227 24.3563 18.0295 24.2237 18.3372C24.0894 18.6479 23.9569 18.9586 23.8253 19.2703C23.6936 19.5819 23.5629 19.8955 23.4331 20.2082C23.3042 20.5189 23.1772 20.8296 23.0501 21.1412C22.9257 21.447 22.8023 21.7538 22.6788 22.0606C22.559 22.3595 22.441 22.6584 22.323 22.9573C22.2096 23.2455 22.097 23.5336 21.9854 23.8227C21.8792 24.0972 21.7739 24.3726 21.6695 24.648C21.5715 24.9057 21.4743 25.1645 21.3781 25.4232C21.2892 25.6614 21.2011 25.9005 21.114 26.1397H21.1131ZM24.31 37.0559C22.2105 35.7955 12.8258 27.8264 13.4331 26.6934C14.102 25.4458 20.4604 24.9655 20.4604 24.9655L21.5905 21.7724C14.2781 22.5428 11.6041 23.8845 11.0894 24.2471C9.80774 25.1498 10.0002 26.1416 10.0238 26.3661C10.5176 31.3018 23.7363 40.8792 23.7363 40.8792L24.3109 37.0559H24.31Z" fill="white" fill-opacity="0.4"/>
</svg>
