<svg width="364" height="240" viewBox="0 0 364 240" fill="none" xmlns="http://www.w3.org/2000/svg">
<g clip-path="url(#clip0_1888_638)">
<rect width="364" height="240" fill="white"/>
<rect width="364" height="240" fill="#DDD9E7"/>
<path d="M172.524 224.884C172.524 224.884 85.4608 285.688 50.0955 281.418C48.5941 281.236 41.9324 280.594 38.8601 270.638C37.63 266.639 32.6841 250.922 42.9669 202.579L60.8073 215.658C60.8073 215.658 53.521 252.036 58.4479 259.971C63.1541 267.552 140.792 225.482 153.151 214.443L172.518 224.884H172.524ZM179.899 166.189C186.169 181.277 200.408 258.856 192.024 260.852C181.722 263.302 154.457 245.966 154.457 245.966L135.544 258.075C137.777 259.448 140.023 260.808 142.288 262.149C144.344 263.365 146.413 264.568 148.501 265.745C150.394 266.816 152.293 267.867 154.204 268.9C155.933 269.832 157.674 270.745 159.428 271.639C161.005 272.445 162.588 273.226 164.184 273.994C165.616 274.681 167.055 275.348 168.506 275.99C169.799 276.563 171.098 277.124 172.411 277.659C173.571 278.138 174.745 278.597 175.924 279.032C176.965 279.416 178.012 279.788 179.066 280.14C179.993 280.449 180.921 280.738 181.861 281.009C182.681 281.248 183.501 281.469 184.327 281.67C185.046 281.847 185.766 282.004 186.497 282.149C187.122 282.275 187.753 282.382 188.384 282.483C188.926 282.565 189.469 282.634 190.018 282.697C192.181 282.93 194.377 282.98 196.547 282.999C198.711 283.018 200.868 282.766 202.899 282.023C204.313 281.507 205.631 280.764 206.76 279.788C207.524 279.126 208.192 278.364 208.76 277.533C208.949 277.256 209.12 276.973 209.303 276.696C226.928 249.738 196.244 151.372 196.244 151.372L179.918 166.208L179.899 166.189ZM258.338 119.081C250.169 113.93 222.809 108.596 195.373 105.378C162.689 101.543 132.516 100.303 132.516 100.303L146.975 119.654C163.781 118.848 239.173 123.992 240.107 134.023C241.053 144.231 207.896 169.111 207.896 169.111L213.618 192.259C253.62 161.56 263.202 139.37 264.912 135.541C269.164 126.001 259.676 119.918 258.345 119.074L258.338 119.081ZM65.2359 129.697C64.687 131.083 64.1445 132.474 63.6083 133.866C63.1351 135.088 62.6746 136.316 62.2141 137.544C61.8293 138.583 61.4445 139.622 61.0723 140.667C60.7758 141.504 60.4856 142.342 60.208 143.179C60.0061 143.79 59.8106 144.407 59.6339 145.024C59.533 145.39 59.4194 145.767 59.3753 146.145C59.369 146.221 59.3122 146.479 59.4573 146.466C59.4573 146.466 59.4741 146.464 59.5078 146.46L83.4674 142.858C86.8235 129.861 110.159 71.3552 122.763 55.4237C125.457 52.017 128.478 51.3621 131.065 54.8633C137.468 63.528 152.148 95.5296 152.148 95.5296L174.089 97.0535C155.277 51.1669 139.726 32.3513 136.307 29.8073C133.979 28.0756 131.311 26.6336 128.384 26.155C125.028 25.6072 121.772 26.5517 118.984 28.3527C117.521 29.2972 116.101 30.33 114.839 31.5138C112.625 33.5918 112.461 33.8941 111.464 35.1157C110.007 36.8978 110.102 36.6081 108.638 38.6798C107.591 40.1659 106.626 41.7024 105.673 43.2452C104.822 44.6243 104.001 46.0159 103.194 47.4201C102.311 48.944 101.453 50.4868 100.607 52.0296C99.6991 53.6857 98.8159 55.3481 97.939 57.0168C97.018 58.78 96.1032 60.5495 95.2074 62.319C94.2738 64.1703 93.3464 66.0216 92.438 67.8856C91.4981 69.7999 90.5644 71.7268 89.6434 73.6536C88.7034 75.6183 87.7761 77.5893 86.855 79.5666C85.9214 81.5627 85.0003 83.5589 84.0856 85.5614C83.1709 87.5638 82.2625 89.5789 81.3603 91.5876C80.4645 93.5838 79.5813 95.58 78.6982 97.5824C77.8339 99.5471 76.9759 101.518 76.118 103.489C75.2853 105.41 74.4652 107.33 73.6451 109.251C72.8565 111.102 72.0743 112.954 71.2983 114.811C70.5602 116.574 69.8284 118.344 69.103 120.113C68.4216 121.769 67.7466 123.432 67.0779 125.094C66.4597 126.624 65.8478 128.161 65.2422 129.697H65.2359ZM87.4543 199.834C72.8628 191.736 7.63947 140.535 11.8598 133.255C16.5092 125.239 60.7001 122.154 60.7001 122.154L68.5541 101.638C17.733 106.587 -0.851733 115.208 -4.42864 117.538C-13.3362 123.337 -11.9988 129.71 -11.8348 131.152C-8.40298 162.864 83.4674 224.399 83.4674 224.399L87.4606 199.834H87.4543Z" fill="white" fill-opacity="0.4"/>
</g>
<defs>
<clipPath id="clip0_1888_638">
<rect width="364" height="240" fill="white"/>
</clipPath>
</defs>
</svg>
